<svg width="95" height="67" viewBox="0 0 95 67" fill="none" xmlns="http://www.w3.org/2000/svg">

<path d="M15.8257 0C17.5132 0.0625 18.9507 0.6875 20.1382 1.875C21.3257 3 21.9507 4.40625 22.0132 6.09375L22.0132 52.0312C21.6382 55.7812 19.5757 57.8125 15.8257 58.125C14.0757 58.125 12.5445 57.5625 11.232 56.4375C9.98198 55.25 9.35698 53.7812 9.35698 52.0312L9.35698 6.09375C9.41948 4.34375 10.0757 2.90625 11.3257 1.78125C12.5757 0.59375 14.0757 0 15.8257 0ZM31.857 16.5C36.0445 13.6875 41.7007 10.8437 48.8257 7.96875L64.2007 1.40625C64.8882 1.09375 65.6382 0.90625 66.4507 0.84375C68.2007 0.71875 69.7007 1.25 70.9507 2.4375C72.2007 3.5625 72.8257 5.03125 72.8257 6.84375C72.8257 8.90625 72.3882 10.4375 71.5132 11.4375C70.7007 12.375 69.6382 13.1562 68.3257 13.7812L55.2007 18.75C52.6382 19.75 50.2007 20.75 47.8882 21.75C45.6382 22.6875 43.5757 23.7812 41.7007 25.0312C39.8257 26.1562 38.8257 27.4375 38.7007 28.875C38.8257 30.25 39.8257 31.5312 41.7007 32.7187C43.5757 33.9687 45.6382 35.0937 47.8882 36.0937C50.2007 37.0312 52.6382 38 55.2007 39L69.8257 44.3437C71.1382 44.9687 72.2007 45.7812 73.0132 46.7812C73.8882 47.7187 74.3257 49.2187 74.3257 51.2812C74.3257 53.0937 73.7007 54.5937 72.4507 55.7812C71.2007 56.9062 69.7007 57.4062 67.9507 57.2812C67.1382 57.2187 66.3882 57.0312 65.7007 56.7187L48.8257 49.7812C41.7007 46.9062 36.0132 44.0625 31.7632 41.25C27.5757 38.375 25.4507 34.25 25.3882 28.875C25.4507 23.5 27.607 19.375 31.857 16.5Z" fill="#D9D9D9"/>
<path d="M15.8257 0C17.5132 0.0625 18.9507 0.6875 20.1382 1.875C21.3257 3 21.9507 4.40625 22.0132 6.09375L22.0132 52.0312C21.6382 55.7812 19.5757 57.8125 15.8257 58.125C14.0757 58.125 12.5445 57.5625 11.232 56.4375C9.98198 55.25 9.35698 53.7812 9.35698 52.0312L9.35698 6.09375C9.41948 4.34375 10.0757 2.90625 11.3257 1.78125C12.5757 0.59375 14.0757 0 15.8257 0ZM31.857 16.5C36.0445 13.6875 41.7007 10.8437 48.8257 7.96875L64.2007 1.40625C64.8882 1.09375 65.6382 0.90625 66.4507 0.84375C68.2007 0.71875 69.7007 1.25 70.9507 2.4375C72.2007 3.5625 72.8257 5.03125 72.8257 6.84375C72.8257 8.90625 72.3882 10.4375 71.5132 11.4375C70.7007 12.375 69.6382 13.1562 68.3257 13.7812L55.2007 18.75C52.6382 19.75 50.2007 20.75 47.8882 21.75C45.6382 22.6875 43.5757 23.7812 41.7007 25.0312C39.8257 26.1562 38.8257 27.4375 38.7007 28.875C38.8257 30.25 39.8257 31.5312 41.7007 32.7187C43.5757 33.9687 45.6382 35.0937 47.8882 36.0937C50.2007 37.0312 52.6382 38 55.2007 39L69.8257 44.3437C71.1382 44.9687 72.2007 45.7812 73.0132 46.7812C73.8882 47.7187 74.3257 49.2187 74.3257 51.2812C74.3257 53.0937 73.7007 54.5937 72.4507 55.7812C71.2007 56.9062 69.7007 57.4062 67.9507 57.2812C67.1382 57.2187 66.3882 57.0312 65.7007 56.7187L48.8257 49.7812C41.7007 46.9062 36.0132 44.0625 31.7632 41.25C27.5757 38.375 25.4507 34.25 25.3882 28.875C25.4507 23.5 27.607 19.375 31.857 16.5Z" fill="url(#paint0_linear_0_1)"/>
<path d="M0 48.6434L3.16493 44.7726L25.6157 63.1292L22.4507 67L0 48.6434Z" fill=""/>
<path d="M88.678 57.5455C86.9962 57.5455 85.553 56.9432 84.3485 55.7386C83.1439 54.5341 82.5416 53.0909 82.5416 51.4091C82.5416 49.7273 83.1439 48.2841 84.3485 47.0795C85.553 45.875 86.9962 45.2727 88.678 45.2727C90.3598 45.2727 91.803 45.875 93.0075 47.0795C94.2121 48.2841 94.8144 49.7273 94.8144 51.4091C94.8144 52.5227 94.5303 53.5455 93.9621 54.4773C93.4166 55.4091 92.678 56.1591 91.7462 56.7273C90.8371 57.2727 89.8144 57.5455 88.678 57.5455Z" fill="#D9D9D9"/>
<path d="M88.678 57.5455C86.9962 57.5455 85.553 56.9432 84.3485 55.7386C83.1439 54.5341 82.5416 53.0909 82.5416 51.4091C82.5416 49.7273 83.1439 48.2841 84.3485 47.0795C85.553 45.875 86.9962 45.2727 88.678 45.2727C90.3598 45.2727 91.803 45.875 93.0075 47.0795C94.2121 48.2841 94.8144 49.7273 94.8144 51.4091C94.8144 52.5227 94.5303 53.5455 93.9621 54.4773C93.4166 55.4091 92.678 56.1591 91.7462 56.7273C90.8371 57.2727 89.8144 57.5455 88.678 57.5455Z" fill="url(#paint1_linear_0_1)"/>
<defs>
<linearGradient id="paint0_linear_0_1" x1="56.4507" y1="-26" x2="56.4507" y2="86" gradientUnits="userSpaceOnUse">
<stop offset="0.283654" stop-color="#2563EB"/>
<stop offset="0.725962" stop-color="#7C3AED"/>
</linearGradient>
<linearGradient id="paint1_linear_0_1" x1="88.9507" y1="-36" x2="88.9507" y2="80" gradientUnits="userSpaceOnUse">
<stop offset="0.283654" stop-color="#2563EB"/>
<stop offset="0.725962" stop-color="#7C3AED"/>
</linearGradient>
</defs>
</svg>
