<svg width="544" height="483" viewBox="0 0 544 483" fill="none" xmlns="http://www.w3.org/2000/svg">
<mask id="path-1-outside-1_18_35" maskUnits="userSpaceOnUse" x="0" y="0" width="544" height="483" fill="black">
<rect fill="white" width="544" height="483"/>
<path d="M54.9062 1C68.9687 1.52084 80.9479 6.72917 90.8438 16.625C100.74 26 105.948 37.7188 106.469 51.7812V434.594C104.025 459.033 92.98 474.711 73.335 481.63L1 376.396V51.7812C1.52083 37.1979 6.98958 25.2187 17.4062 15.8438C27.8229 5.94793 40.3229 1 54.9062 1ZM476.781 8.03125C491.365 6.98959 503.865 11.4167 514.281 21.3125C524.698 30.6875 529.906 42.9271 529.906 58.0312C529.906 75.2187 526.26 87.9792 518.969 96.3125C512.198 104.125 503.344 110.635 492.406 115.844L383.031 157.25C361.677 165.583 341.365 173.917 322.094 182.25C303.344 190.062 286.156 199.177 270.531 209.594C254.906 218.969 246.573 229.646 245.531 241.625C246.573 253.083 254.906 263.76 270.531 273.656C286.156 284.073 303.344 293.448 322.094 301.781C341.365 309.594 361.677 317.667 383.031 326L504.906 370.531C515.844 375.74 524.698 382.51 531.469 390.844C538.76 398.656 542.406 411.156 542.406 428.344C542.406 443.448 537.198 455.948 526.781 465.844C516.365 475.219 503.865 479.385 489.281 478.344C482.51 477.823 476.26 476.26 470.531 473.656L329.906 415.844C270.531 391.885 223.135 368.187 187.719 344.75C152.823 320.792 135.115 286.417 134.594 241.625C135.115 196.833 153.083 162.458 188.5 138.5C223.396 115.063 270.531 91.3646 329.906 67.4062L458.031 12.7188C463.76 10.1146 470.01 8.55208 476.781 8.03125Z"/>
</mask>
<path d="M54.9062 1C68.9687 1.52084 80.9479 6.72917 90.8438 16.625C100.74 26 105.948 37.7188 106.469 51.7812V434.594C104.025 459.033 92.98 474.711 73.335 481.63L1 376.396V51.7812C1.52083 37.1979 6.98958 25.2187 17.4062 15.8438C27.8229 5.94793 40.3229 1 54.9062 1ZM476.781 8.03125C491.365 6.98959 503.865 11.4167 514.281 21.3125C524.698 30.6875 529.906 42.9271 529.906 58.0312C529.906 75.2187 526.26 87.9792 518.969 96.3125C512.198 104.125 503.344 110.635 492.406 115.844L383.031 157.25C361.677 165.583 341.365 173.917 322.094 182.25C303.344 190.062 286.156 199.177 270.531 209.594C254.906 218.969 246.573 229.646 245.531 241.625C246.573 253.083 254.906 263.76 270.531 273.656C286.156 284.073 303.344 293.448 322.094 301.781C341.365 309.594 361.677 317.667 383.031 326L504.906 370.531C515.844 375.74 524.698 382.51 531.469 390.844C538.76 398.656 542.406 411.156 542.406 428.344C542.406 443.448 537.198 455.948 526.781 465.844C516.365 475.219 503.865 479.385 489.281 478.344C482.51 477.823 476.26 476.26 470.531 473.656L329.906 415.844C270.531 391.885 223.135 368.187 187.719 344.75C152.823 320.792 135.115 286.417 134.594 241.625C135.115 196.833 153.083 162.458 188.5 138.5C223.396 115.063 270.531 91.3646 329.906 67.4062L458.031 12.7188C463.76 10.1146 470.01 8.55208 476.781 8.03125Z" fill="#D9D9D9"/>
<g clip-path="url(#paint0_angular_18_35_clip_path)" data-figma-skip-parse="true"><g transform="matrix(0 0.1715 -0.0655 0 17.2812 -40.5)"><foreignObject x="-8032.44" y="-8032.44" width="16064.9" height="16064.9"><div xmlns="http://www.w3.org/1999/xhtml" style="background:conic-gradient(from 90deg,rgba(66, 85, 235, 1) 0deg,rgba(37, 99, 235, 1) 38.0769deg,rgba(124, 58, 237, 1) 285.577deg,rgba(66, 85, 235, 1) 360deg);height:100%;width:100%;opacity:1"></div></foreignObject></g></g><path d="M54.9062 1C68.9687 1.52084 80.9479 6.72917 90.8438 16.625C100.74 26 105.948 37.7188 106.469 51.7812V434.594C104.025 459.033 92.98 474.711 73.335 481.63L1 376.396V51.7812C1.52083 37.1979 6.98958 25.2187 17.4062 15.8438C27.8229 5.94793 40.3229 1 54.9062 1ZM476.781 8.03125C491.365 6.98959 503.865 11.4167 514.281 21.3125C524.698 30.6875 529.906 42.9271 529.906 58.0312C529.906 75.2187 526.26 87.9792 518.969 96.3125C512.198 104.125 503.344 110.635 492.406 115.844L383.031 157.25C361.677 165.583 341.365 173.917 322.094 182.25C303.344 190.062 286.156 199.177 270.531 209.594C254.906 218.969 246.573 229.646 245.531 241.625C246.573 253.083 254.906 263.76 270.531 273.656C286.156 284.073 303.344 293.448 322.094 301.781C341.365 309.594 361.677 317.667 383.031 326L504.906 370.531C515.844 375.74 524.698 382.51 531.469 390.844C538.76 398.656 542.406 411.156 542.406 428.344C542.406 443.448 537.198 455.948 526.781 465.844C516.365 475.219 503.865 479.385 489.281 478.344C482.51 477.823 476.26 476.26 470.531 473.656L329.906 415.844C270.531 391.885 223.135 368.187 187.719 344.75C152.823 320.792 135.115 286.417 134.594 241.625C135.115 196.833 153.083 162.458 188.5 138.5C223.396 115.063 270.531 91.3646 329.906 67.4062L458.031 12.7188C463.76 10.1146 470.01 8.55208 476.781 8.03125Z" data-figma-gradient-fill="{&#34;type&#34;:&#34;GRADIENT_ANGULAR&#34;,&#34;stops&#34;:[{&#34;color&#34;:{&#34;r&#34;:0.14509804546833038,&#34;g&#34;:0.38823530077934265,&#34;b&#34;:0.92156863212585449,&#34;a&#34;:1.0},&#34;position&#34;:0.10576923191547394},{&#34;color&#34;:{&#34;r&#34;:0.48627451062202454,&#34;g&#34;:0.22745098173618317,&#34;b&#34;:0.92941176891326904,&#34;a&#34;:1.0},&#34;position&#34;:0.79326921701431274}],&#34;stopsVar&#34;:[{&#34;color&#34;:{&#34;r&#34;:0.14509804546833038,&#34;g&#34;:0.38823530077934265,&#34;b&#34;:0.92156863212585449,&#34;a&#34;:1.0},&#34;position&#34;:0.10576923191547394},{&#34;color&#34;:{&#34;r&#34;:0.48627451062202454,&#34;g&#34;:0.22745098173618317,&#34;b&#34;:0.92941176891326904,&#34;a&#34;:1.0},&#34;position&#34;:0.79326921701431274}],&#34;transform&#34;:{&#34;m00&#34;:2.6698597082068162e-14,&#34;m01&#34;:-131.0,&#34;m02&#34;:82.781219482421875,&#34;m10&#34;:343.00003051757812,&#34;m11&#34;:8.7722940077337302e-14,&#34;m12&#34;:-212.0},&#34;opacity&#34;:1.0,&#34;blendMode&#34;:&#34;NORMAL&#34;,&#34;visible&#34;:true}"/>
<path d="M54.9062 1L54.9433 0.000685155L54.9248 0H54.9062V1ZM90.8438 16.625L90.1366 17.3321L90.1462 17.3417L90.156 17.351L90.8438 16.625ZM106.469 51.7812H107.469V51.7627L107.468 51.7442L106.469 51.7812ZM106.469 434.594L107.464 434.693L107.469 434.644V434.594H106.469ZM73.335 481.63L72.5109 482.196L72.9447 482.828L73.6672 482.573L73.335 481.63ZM1 376.396H0V376.707L0.175911 376.963L1 376.396ZM1 51.7812L0.000637174 51.7456L0 51.7634V51.7812H1ZM17.4062 15.8438L18.0752 16.587L18.0852 16.578L18.095 16.5687L17.4062 15.8438ZM476.781 8.03125L476.71 7.03378L476.705 7.0342L476.781 8.03125ZM514.281 21.3125L513.593 22.0375L513.602 22.0468L513.612 22.0558L514.281 21.3125ZM518.969 96.3125L518.216 95.654L518.213 95.6576L518.969 96.3125ZM492.406 115.844L492.76 116.779L492.799 116.764L492.836 116.747L492.406 115.844ZM383.031 157.25L382.677 156.315L382.668 156.318L383.031 157.25ZM322.094 182.25L322.478 183.173L322.491 183.168L322.094 182.25ZM270.531 209.594L271.046 210.451L271.066 210.439L271.086 210.426L270.531 209.594ZM245.531 241.625L244.535 241.538L244.527 241.627L244.535 241.716L245.531 241.625ZM270.531 273.656L271.086 272.824L271.076 272.818L271.066 272.811L270.531 273.656ZM322.094 301.781L321.688 302.695L321.703 302.702L321.718 302.708L322.094 301.781ZM383.031 326L382.668 326.932L382.678 326.936L382.688 326.939L383.031 326ZM504.906 370.531L505.336 369.628L505.294 369.608L505.249 369.592L504.906 370.531ZM531.469 390.844L530.693 391.474L530.714 391.501L530.738 391.526L531.469 390.844ZM526.781 465.844L527.45 466.587L527.46 466.578L527.47 466.569L526.781 465.844ZM489.281 478.344L489.205 479.341L489.21 479.341L489.281 478.344ZM470.531 473.656L470.945 472.746L470.928 472.738L470.911 472.731L470.531 473.656ZM329.906 415.844L330.286 414.919L330.28 414.916L329.906 415.844ZM187.719 344.75L187.153 345.574L187.16 345.579L187.167 345.584L187.719 344.75ZM134.594 241.625L133.594 241.613L133.594 241.625L133.594 241.637L134.594 241.625ZM188.5 138.5L187.942 137.67L187.94 137.672L188.5 138.5ZM329.906 67.4062L330.28 68.3336L330.29 68.3299L330.299 68.326L329.906 67.4062ZM458.031 12.7188L458.424 13.6385L458.434 13.6339L458.445 13.6291L458.031 12.7188ZM54.9062 1L54.8692 1.99931C68.681 2.51087 80.4204 7.61586 90.1366 17.3321L90.8438 16.625L91.5509 15.9179C81.4755 5.84249 69.2564 0.53081 54.9433 0.000685155L54.9062 1ZM90.8438 16.625L90.156 17.351C99.8551 26.5395 104.958 38.0079 105.469 51.8183L106.469 51.7812L107.468 51.7442C106.938 37.4296 101.624 25.4604 91.5315 15.899L90.8438 16.625ZM106.469 51.7812H105.469V434.594H106.469H107.469V51.7812H106.469ZM106.469 434.594L105.474 434.494C104.264 446.589 100.934 456.442 95.5348 464.106C90.1425 471.76 82.647 477.29 73.0027 480.687L73.335 481.63L73.6672 482.573C83.6679 479.051 91.5174 473.281 97.1698 465.258C102.815 457.243 106.229 447.037 107.464 434.693L106.469 434.594ZM73.335 481.63L74.159 481.063L1.82409 375.83L1 376.396L0.175911 376.963L72.5109 482.196L73.335 481.63ZM1 376.396H2V51.7812H1H0V376.396H1ZM1 51.7812L1.99936 51.8169C2.51097 37.492 7.86917 25.7725 18.0752 16.587L17.4062 15.8438L16.7373 15.1005C6.10999 24.665 0.530698 36.9039 0.000637174 51.7456L1 51.7812ZM17.4062 15.8438L18.095 16.5687C28.3227 6.85241 40.575 2 54.9062 2V1V0C40.0709 0 27.3231 5.04344 16.7175 15.1188L17.4062 15.8438ZM476.781 8.03125L476.853 9.02871C491.161 8.00668 503.384 12.3391 513.593 22.0375L514.281 21.3125L514.97 20.5875C504.346 10.4942 491.568 5.97251 476.71 7.03379L476.781 8.03125ZM514.281 21.3125L513.612 22.0558C523.8 31.2252 528.906 43.1858 528.906 58.0312H529.906H530.906C530.906 42.6684 525.595 30.1498 514.95 20.5692L514.281 21.3125ZM529.906 58.0312H528.906C528.906 75.1044 525.281 87.5804 518.216 95.654L518.969 96.3125L519.721 96.971C527.24 88.3779 530.906 75.3331 530.906 58.0312H529.906ZM518.969 96.3125L518.213 95.6576C511.547 103.349 502.81 109.782 491.976 114.941L492.406 115.844L492.836 116.747C503.877 111.489 512.849 104.9 519.724 96.9674L518.969 96.3125ZM492.406 115.844L492.052 114.909L382.677 156.315L383.031 157.25L383.385 158.185L492.76 116.779L492.406 115.844ZM383.031 157.25L382.668 156.318C361.303 164.656 340.98 172.994 321.697 181.332L322.094 182.25L322.491 183.168C341.75 174.84 362.051 166.511 383.395 158.182L383.031 157.25ZM322.094 182.25L321.709 181.327C302.904 189.162 285.659 198.307 269.977 208.762L270.531 209.594L271.086 210.426C286.653 200.048 303.783 190.963 322.478 183.173L322.094 182.25ZM270.531 209.594L270.017 208.736C254.264 218.188 245.617 229.101 244.535 241.538L245.531 241.625L246.527 241.712C247.529 230.191 255.548 219.75 271.046 210.451L270.531 209.594ZM245.531 241.625L244.535 241.716C245.619 253.632 254.269 264.54 269.996 274.501L270.531 273.656L271.066 272.811C255.544 262.981 247.527 252.534 246.527 241.534L245.531 241.625ZM270.531 273.656L269.977 274.488C285.653 284.939 302.891 294.341 321.688 302.695L322.094 301.781L322.5 300.867C303.797 292.555 286.66 283.207 271.086 272.824L270.531 273.656ZM322.094 301.781L321.718 302.708C340.993 310.522 361.31 318.597 382.668 326.932L383.031 326L383.395 325.068C362.044 316.737 341.736 308.665 322.469 300.855L322.094 301.781ZM383.031 326L382.688 326.939L504.563 371.471L504.906 370.531L505.249 369.592L383.374 325.061L383.031 326ZM504.906 370.531L504.476 371.434C515.297 376.587 524.027 383.27 530.693 391.474L531.469 390.844L532.245 390.213C525.369 381.75 516.391 374.892 505.336 369.628L504.906 370.531ZM531.469 390.844L530.738 391.526C537.777 399.069 541.406 411.263 541.406 428.344H542.406H543.406C543.406 411.049 539.743 398.244 532.2 390.161L531.469 390.844ZM542.406 428.344H541.406C541.406 443.19 536.299 455.422 526.093 465.119L526.781 465.844L527.47 466.569C538.097 456.474 543.406 443.706 543.406 428.344H542.406ZM526.781 465.844L526.112 465.1C515.907 474.285 503.678 478.37 489.353 477.346L489.281 478.344L489.21 479.341C504.051 480.401 516.822 476.152 527.45 466.587L526.781 465.844ZM489.281 478.344L489.358 477.347C482.694 476.834 476.56 475.298 470.945 472.746L470.531 473.656L470.117 474.567C475.961 477.223 482.326 478.812 489.205 479.341L489.281 478.344ZM470.531 473.656L470.911 472.731L330.286 414.919L329.906 415.844L329.526 416.769L470.151 474.581L470.531 473.656ZM329.906 415.844L330.28 414.916C270.94 390.972 223.611 367.303 188.271 343.916L187.719 344.75L187.167 345.584C222.66 369.072 270.123 392.799 329.532 416.771L329.906 415.844ZM187.719 344.75L188.285 343.926C153.675 320.164 136.111 286.102 135.594 241.613L134.594 241.625L133.594 241.637C134.118 286.731 151.971 321.42 187.153 345.574L187.719 344.75ZM134.594 241.625L135.594 241.637C136.111 197.154 153.93 163.093 189.06 139.328L188.5 138.5L187.94 137.672C152.236 161.824 134.118 196.512 133.594 241.613L134.594 241.625ZM188.5 138.5L189.058 139.33C223.874 115.946 270.94 92.2779 330.28 68.3336L329.906 67.4062L329.532 66.4789C270.122 90.4512 222.917 114.179 187.942 137.67L188.5 138.5ZM329.906 67.4062L330.299 68.326L458.424 13.6385L458.031 12.7188L457.639 11.799L329.514 66.4865L329.906 67.4062ZM458.031 12.7188L458.445 13.6291C464.06 11.077 470.194 9.54088 476.858 9.0283L476.781 8.03125L476.705 7.0342C469.826 7.56328 463.461 9.15215 457.617 11.8084L458.031 12.7188Z" fill="black" mask="url(#path-1-outside-1_18_35)"/>
<defs>
<clipPath id="paint0_angular_18_35_clip_path"><path d="M54.9062 1C68.9687 1.52084 80.9479 6.72917 90.8438 16.625C100.74 26 105.948 37.7188 106.469 51.7812V434.594C104.025 459.033 92.98 474.711 73.335 481.63L1 376.396V51.7812C1.52083 37.1979 6.98958 25.2187 17.4062 15.8438C27.8229 5.94793 40.3229 1 54.9062 1ZM476.781 8.03125C491.365 6.98959 503.865 11.4167 514.281 21.3125C524.698 30.6875 529.906 42.9271 529.906 58.0312C529.906 75.2187 526.26 87.9792 518.969 96.3125C512.198 104.125 503.344 110.635 492.406 115.844L383.031 157.25C361.677 165.583 341.365 173.917 322.094 182.25C303.344 190.062 286.156 199.177 270.531 209.594C254.906 218.969 246.573 229.646 245.531 241.625C246.573 253.083 254.906 263.76 270.531 273.656C286.156 284.073 303.344 293.448 322.094 301.781C341.365 309.594 361.677 317.667 383.031 326L504.906 370.531C515.844 375.74 524.698 382.51 531.469 390.844C538.76 398.656 542.406 411.156 542.406 428.344C542.406 443.448 537.198 455.948 526.781 465.844C516.365 475.219 503.865 479.385 489.281 478.344C482.51 477.823 476.26 476.26 470.531 473.656L329.906 415.844C270.531 391.885 223.135 368.187 187.719 344.75C152.823 320.792 135.115 286.417 134.594 241.625C135.115 196.833 153.083 162.458 188.5 138.5C223.396 115.063 270.531 91.3646 329.906 67.4062L458.031 12.7188C463.76 10.1146 470.01 8.55208 476.781 8.03125Z"/></clipPath></defs>
</svg>
