<svg width="105" height="105" viewBox="0 0 105 105" fill="none" xmlns="http://www.w3.org/2000/svg">
<mask id="path-1-outside-1_19_39" maskUnits="userSpaceOnUse" x="-0.0909119" y="-0.272705" width="105" height="105" fill="black">
<rect fill="white" x="-0.0909119" y="-0.272705" width="105" height="105"/>
<path d="M52.1364 103.273C38.1212 103.273 26.0947 98.2538 16.0568 88.2159C6.01894 78.1781 1 66.1515 1 52.1364C1 38.1212 6.01894 26.0947 16.0568 16.0568C26.0947 6.01896 38.1212 1.00002 52.1364 1.00002C66.1515 1.00002 78.178 6.01896 88.2159 16.0568C98.2538 26.0947 103.273 38.1212 103.273 52.1364C103.273 61.4167 100.905 69.9394 96.1705 77.7046C91.625 85.4697 85.4697 91.7197 77.7046 96.4546C70.1288 101 61.6061 103.273 52.1364 103.273Z"/>
</mask>
<path d="M52.1364 103.273C38.1212 103.273 26.0947 98.2538 16.0568 88.2159C6.01894 78.1781 1 66.1515 1 52.1364C1 38.1212 6.01894 26.0947 16.0568 16.0568C26.0947 6.01896 38.1212 1.00002 52.1364 1.00002C66.1515 1.00002 78.178 6.01896 88.2159 16.0568C98.2538 26.0947 103.273 38.1212 103.273 52.1364C103.273 61.4167 100.905 69.9394 96.1705 77.7046C91.625 85.4697 85.4697 91.7197 77.7046 96.4546C70.1288 101 61.6061 103.273 52.1364 103.273Z" fill="#D9D9D9"/>
<g clip-path="url(#paint0_angular_19_39_clip_path)" data-figma-skip-parse="true"><g transform="matrix(0 0.1835 -0.1965 0 138.409 -492.773)"><foreignObject x="-1005.45" y="-1005.45" width="2010.9" height="2010.9"><div xmlns="http://www.w3.org/1999/xhtml" style="background:conic-gradient(from 90deg,rgba(66, 85, 235, 1) 0deg,rgba(37, 99, 235, 1) 38.0769deg,rgba(124, 58, 237, 1) 285.577deg,rgba(66, 85, 235, 1) 360deg);height:100%;width:100%;opacity:1"></div></foreignObject></g></g><path d="M52.1364 103.273C38.1212 103.273 26.0947 98.2538 16.0568 88.2159C6.01894 78.1781 1 66.1515 1 52.1364C1 38.1212 6.01894 26.0947 16.0568 16.0568C26.0947 6.01896 38.1212 1.00002 52.1364 1.00002C66.1515 1.00002 78.178 6.01896 88.2159 16.0568C98.2538 26.0947 103.273 38.1212 103.273 52.1364C103.273 61.4167 100.905 69.9394 96.1705 77.7046C91.625 85.4697 85.4697 91.7197 77.7046 96.4546C70.1288 101 61.6061 103.273 52.1364 103.273Z" data-figma-gradient-fill="{&#34;type&#34;:&#34;GRADIENT_ANGULAR&#34;,&#34;stops&#34;:[{&#34;color&#34;:{&#34;r&#34;:0.14509804546833038,&#34;g&#34;:0.38823530077934265,&#34;b&#34;:0.92156863212585449,&#34;a&#34;:1.0},&#34;position&#34;:0.10576923191547394},{&#34;color&#34;:{&#34;r&#34;:0.48627451062202454,&#34;g&#34;:0.22745098173618317,&#34;b&#34;:0.92941176891326904,&#34;a&#34;:1.0},&#34;position&#34;:0.79326921701431274}],&#34;stopsVar&#34;:[{&#34;color&#34;:{&#34;r&#34;:0.14509804546833038,&#34;g&#34;:0.38823530077934265,&#34;b&#34;:0.92156863212585449,&#34;a&#34;:1.0},&#34;position&#34;:0.10576923191547394},{&#34;color&#34;:{&#34;r&#34;:0.48627451062202454,&#34;g&#34;:0.22745098173618317,&#34;b&#34;:0.92941176891326904,&#34;a&#34;:1.0},&#34;position&#34;:0.79326921701431274}],&#34;transform&#34;:{&#34;m00&#34;:2.4064311063580132e-14,&#34;m01&#34;:-393.0,&#34;m02&#34;:334.90908813476562,&#34;m10&#34;:367.0,&#34;m11&#34;:2.2472270287568312e-14,&#34;m12&#34;:-676.2727050781250},&#34;opacity&#34;:1.0,&#34;blendMode&#34;:&#34;NORMAL&#34;,&#34;visible&#34;:true}"/>
<path d="M16.0568 88.2159L16.7639 87.5089V87.5089L16.0568 88.2159ZM88.2159 16.0568L88.923 15.3497V15.3497L88.2159 16.0568ZM96.1705 77.7046L95.3167 77.184L95.312 77.1917L95.3074 77.1994L96.1705 77.7046ZM77.7045 96.4546L78.2191 97.3121L78.2252 97.3083L77.7045 96.4546ZM52.1364 103.273V102.273C38.3902 102.273 26.617 97.3619 16.7639 87.5089L16.0568 88.2159L15.3497 88.923C25.5724 99.1458 37.8522 104.273 52.1364 104.273V103.273ZM16.0568 88.2159L16.7639 87.5089C6.91087 77.6558 2 65.8825 2 52.1364H1H0C0 66.4206 5.12701 78.7003 15.3497 88.923L16.0568 88.2159ZM1 52.1364H2C2 38.3903 6.91087 26.617 16.7639 16.7639L16.0568 16.0568L15.3497 15.3497C5.12701 25.5724 0 37.8522 0 52.1364H1ZM16.0568 16.0568L16.7639 16.7639C26.617 6.91089 38.3902 2 52.1364 2V1V0C37.8522 0 25.5724 5.12701 15.3497 15.3497L16.0568 16.0568ZM52.1364 1V2C65.8825 2 77.6557 6.91089 87.5088 16.7639L88.2159 16.0568L88.923 15.3497C78.7003 5.12701 66.4205 0 52.1364 0V1ZM88.2159 16.0568L87.5088 16.7639C97.3619 26.617 102.273 38.3903 102.273 52.1364H103.273H104.273C104.273 37.8522 99.1457 25.5724 88.923 15.3497L88.2159 16.0568ZM103.273 52.1364H102.273C102.273 61.2369 99.9539 69.579 95.3167 77.184L96.1705 77.7046L97.0242 78.2252C101.857 70.2999 104.273 61.5964 104.273 52.1364H103.273ZM96.1705 77.7046L95.3074 77.1994C90.8465 84.8202 84.8095 90.951 77.1839 95.6008L77.7045 96.4546L78.2252 97.3083C86.1299 92.4884 92.4035 86.1193 97.0335 78.2097L96.1705 77.7046ZM77.7045 96.4546L77.19 95.597C69.7809 100.043 61.4383 102.273 52.1364 102.273V103.273V104.273C61.7738 104.273 70.4767 101.957 78.219 97.3121L77.7045 96.4546Z" fill="black" mask="url(#path-1-outside-1_19_39)"/>
<defs>
<clipPath id="paint0_angular_19_39_clip_path"><path d="M52.1364 103.273C38.1212 103.273 26.0947 98.2538 16.0568 88.2159C6.01894 78.1781 1 66.1515 1 52.1364C1 38.1212 6.01894 26.0947 16.0568 16.0568C26.0947 6.01896 38.1212 1.00002 52.1364 1.00002C66.1515 1.00002 78.178 6.01896 88.2159 16.0568C98.2538 26.0947 103.273 38.1212 103.273 52.1364C103.273 61.4167 100.905 69.9394 96.1705 77.7046C91.625 85.4697 85.4697 91.7197 77.7046 96.4546C70.1288 101 61.6061 103.273 52.1364 103.273Z"/></clipPath></defs>
</svg>
